{"title":"G.I. Joe.Retaliation,2013,Extended.Action.Cut.BRRip.XViD-PLAYNOW","uid":8667879,"size":734896393,"categoryP":"video","categoryS":"movies","magnet":"?xt=urn:btih:53175a1f6b92fb4e5369ead4f5856d9370741f0c&amp;dn=G.I.+Joe.Retaliation%2C2013%2CExtended.Action.Cut.BRRip.XViD-PLAYNOW&amp;tr=udp%3A%2F%2Ftracker.openbittorrent.com%3A80&amp;tr=udp%3A%2F%2Fopen.demonii.com%3A1337&amp;tr=udp%3A%2F%2Ftracker.coppersurfer.tk%3A6969&amp;tr=udp%3A%2F%2Fexodus.desync.com%3A6969","seeders":11,"leechers":1,"uploader":"Acesn8s","files":-1,"time":1373439174,"description":"GI.Joe.Retaliation.2013.Extended.Action.Cut.BRRiP.Xvid- \nPLAYNOW \n                                  \nFormat/Info                              : Audio Video Interleave\nFile size                                : 701 MiB\nDuration                                 : 2h 3mn\nOverall bit rate                         : 797 Kbps\nWriting library                          : VirtualDub build 32842/release\n\nVideo\nID                                       : 0\nFormat                                   : MPEG-4 Visual\nFormat profile                           : Advanced Simple@L5\nFormat settings, BVOP                    : 2\nFormat settings, QPel                    : No\nFormat settings, GMC                     : No warppoints\nFormat settings, Matrix                  : Default (H.263)\nMuxing mode                              : Packed bitstream\nCodec ID                                 : XVID\nCodec ID/Hint                            : XviD\nDuration                                 : 2h 3mn\nBit rate                                 : 659 Kbps\nWidth                                    : 640 pixels\nHeight                                   : 272 pixels\nDisplay aspect ratio                     : 2.35:1\nFrame rate                               : 23.976 fps\nColor space                              : YUV\nChroma subsampling                       : 4:2:0\nBit depth                                : 8 bits\nScan type                                : Progressive\nCompression mode                         : Lossy\nBits/(Pixel*Frame)                       : 0.158\nStream size                              : 580 MiB (83%)\nWriting library                          : XviD 64\n\nAudio\nID                                       : 1\nFormat                                   : MPEG Audio\nFormat version                           : Version 1\nFormat profile                           : Layer 3\nMode                                     : Joint stereo\nCodec ID                                 : 55\nCodec ID/Hint                            : MP3\nDuration                                 : 2h 3mn\nBit rate mode                            : Constant\nBit rate                                 : 128 Kbps\nChannel(s)                               : 2 channels\nSampling rate                            : 48.0 KHz\nCompression mode                         : Lossy\nStream size                              : 113 MiB (16%)\nAlignment                                : Split accross interleaves\nInterleave, duration                     : 42 ms (1.00 video frame)\nInterleave, preload duration             : 500 ms\nWriting library                          : LAME3.99.5\n\nScreens\n &lt;a href=&quot;\nhttp://imageshack.us/a/img853/115/ot4j.jpg&quot; rel=&quot;nofollow&quot; target=&quot;_NEW&quot;&gt;\nhttp://imageshack.us/a/img853/115/ot4j.jpg&lt;/a&gt;\n &lt;a href=&quot;\nhttp://imageshack.us/a/img708/9813/7r7w.png&quot; rel=&quot;nofollow&quot; target=&quot;_NEW&quot;&gt;\nhttp://imageshack.us/a/img708/9813/7r7w.png&lt;/a&gt;\n &lt;a href=&quot;\nhttp://imageshack.us/a/img341/3416/nrt.png&quot; rel=&quot;nofollow&quot; target=&quot;_NEW&quot;&gt;\nhttp://imageshack.us/a/img341/3416/nrt.png&lt;/a&gt;\n\n\n\n\n\n\n\n","torrent":{"xt":"urn:btih:53175a1f6b92fb4e5369ead4f5856d9370741f0c","amp;dn":"G.I.+Joe.Retaliation%2C2013%2CExtended.Action.Cut.BRRip.XViD-PLAYNOW","amp;tr":["udp%3A%2F%2Ftracker.openbittorrent.com%3A80","udp%3A%2F%2Fopen.demonii.com%3A1337","udp%3A%2F%2Ftracker.coppersurfer.tk%3A6969","udp%3A%2F%2Fexodus.desync.com%3A6969"],"infoHash":"53175a1f6b92fb4e5369ead4f5856d9370741f0c","infoHashBuffer":{"type":"Buffer","data":[83,23,90,31,107,146,251,78,83,105,234,212,245,133,109,147,112,116,31,12]},"announce":[],"urlList":[]}}